<mxfile host="app.diagrams.net" modified="2024-06-09T14:17:25.554Z" agent="Mozilla/5.0 (Windows NT 10.0; Win64; x64) AppleWebKit/537.36 (KHTML, like Gecko) Chrome/125.0.0.0 Safari/537.36" etag="CwyGkKSg8v4PxeKrPTI-" version="24.4.8" type="device">
  <diagram id="C5RBs43oDa-KdzZeNtuy" name="Page-1">
    <mxGraphModel dx="794" dy="420" grid="1" gridSize="10" guides="1" tooltips="1" connect="1" arrows="1" fold="1" page="1" pageScale="1" pageWidth="827" pageHeight="1169" background="none" math="0" shadow="0">
      <root>
        <mxCell id="WIyWlLk6GJQsqaUBKTNV-0" />
        <mxCell id="WIyWlLk6GJQsqaUBKTNV-1" parent="WIyWlLk6GJQsqaUBKTNV-0" />
        <mxCell id="O44ZnupVjyuXZT38wMNV-1" value="" style="edgeStyle=orthogonalEdgeStyle;rounded=0;orthogonalLoop=1;jettySize=auto;html=1;" edge="1" parent="WIyWlLk6GJQsqaUBKTNV-1" source="V_FbAI8TEAsksdHQZNuH-0" target="O44ZnupVjyuXZT38wMNV-0">
          <mxGeometry relative="1" as="geometry" />
        </mxCell>
        <mxCell id="V_FbAI8TEAsksdHQZNuH-0" value="&lt;font style=&quot;font-size: 12px;&quot;&gt;&lt;b style=&quot;&quot;&gt;Bắt đầu&lt;/b&gt;&lt;/font&gt;" style="ellipse;whiteSpace=wrap;html=1;fillColor=#f8cecc;strokeColor=#b85450;" parent="WIyWlLk6GJQsqaUBKTNV-1" vertex="1">
          <mxGeometry x="40" y="278.5" width="120" height="50" as="geometry" />
        </mxCell>
        <mxCell id="p513RXOK11F14q--Kfq--6" style="edgeStyle=orthogonalEdgeStyle;rounded=0;orthogonalLoop=1;jettySize=auto;html=1;" parent="WIyWlLk6GJQsqaUBKTNV-1" source="p513RXOK11F14q--Kfq--3" target="p513RXOK11F14q--Kfq--5" edge="1">
          <mxGeometry relative="1" as="geometry" />
        </mxCell>
        <mxCell id="p513RXOK11F14q--Kfq--3" value="&lt;b&gt;&lt;font color=&quot;#ffffff&quot;&gt;Đánh giá&lt;/font&gt;&lt;/b&gt;" style="rounded=1;whiteSpace=wrap;html=1;fillColor=#008a00;strokeColor=#005700;fontColor=#ffffff;" parent="WIyWlLk6GJQsqaUBKTNV-1" vertex="1">
          <mxGeometry x="460" y="140" width="140" height="50" as="geometry" />
        </mxCell>
        <mxCell id="p513RXOK11F14q--Kfq--9" style="edgeStyle=orthogonalEdgeStyle;rounded=0;orthogonalLoop=1;jettySize=auto;html=1;entryX=1;entryY=0.5;entryDx=0;entryDy=0;" parent="WIyWlLk6GJQsqaUBKTNV-1" source="p513RXOK11F14q--Kfq--5" target="O44ZnupVjyuXZT38wMNV-4" edge="1">
          <mxGeometry relative="1" as="geometry">
            <mxPoint x="320" y="344" as="targetPoint" />
          </mxGeometry>
        </mxCell>
        <mxCell id="p513RXOK11F14q--Kfq--10" value="Yes" style="edgeLabel;html=1;align=center;verticalAlign=middle;resizable=0;points=[];" parent="p513RXOK11F14q--Kfq--9" vertex="1" connectable="0">
          <mxGeometry x="-0.0495" relative="1" as="geometry">
            <mxPoint as="offset" />
          </mxGeometry>
        </mxCell>
        <mxCell id="p513RXOK11F14q--Kfq--12" value="" style="edgeStyle=orthogonalEdgeStyle;rounded=0;orthogonalLoop=1;jettySize=auto;html=1;" parent="WIyWlLk6GJQsqaUBKTNV-1" source="p513RXOK11F14q--Kfq--5" target="p513RXOK11F14q--Kfq--11" edge="1">
          <mxGeometry relative="1" as="geometry" />
        </mxCell>
        <mxCell id="p513RXOK11F14q--Kfq--13" value="No" style="edgeLabel;html=1;align=center;verticalAlign=middle;resizable=0;points=[];" parent="p513RXOK11F14q--Kfq--12" vertex="1" connectable="0">
          <mxGeometry x="-0.1157" y="-3" relative="1" as="geometry">
            <mxPoint as="offset" />
          </mxGeometry>
        </mxCell>
        <mxCell id="p513RXOK11F14q--Kfq--5" value="&lt;b&gt;&lt;font color=&quot;#ffffff&quot;&gt;Là lời giải&lt;/font&gt;&lt;/b&gt;&lt;div&gt;&lt;b&gt;&lt;font color=&quot;#ffffff&quot;&gt;&amp;nbsp;tối ưu&lt;/font&gt;&lt;/b&gt;&lt;/div&gt;" style="rhombus;whiteSpace=wrap;html=1;fillColor=#e6d0de;strokeColor=#996185;gradientColor=#d5739d;" parent="WIyWlLk6GJQsqaUBKTNV-1" vertex="1">
          <mxGeometry x="475" y="251.5" width="110" height="100" as="geometry" />
        </mxCell>
        <mxCell id="p513RXOK11F14q--Kfq--8" value="&lt;font size=&quot;1&quot; style=&quot;&quot; face=&quot;Times New Roman, serif&quot;&gt;&lt;b style=&quot;font-size: 13px;&quot;&gt;Kết thúc&lt;/b&gt;&lt;/font&gt;" style="ellipse;whiteSpace=wrap;html=1;fillColor=#f8cecc;strokeColor=#b85450;" parent="WIyWlLk6GJQsqaUBKTNV-1" vertex="1">
          <mxGeometry x="230" y="380" width="120" height="50" as="geometry" />
        </mxCell>
        <mxCell id="p513RXOK11F14q--Kfq--20" value="" style="edgeStyle=orthogonalEdgeStyle;rounded=0;orthogonalLoop=1;jettySize=auto;html=1;" parent="WIyWlLk6GJQsqaUBKTNV-1" source="p513RXOK11F14q--Kfq--11" target="p513RXOK11F14q--Kfq--19" edge="1">
          <mxGeometry relative="1" as="geometry" />
        </mxCell>
        <mxCell id="p513RXOK11F14q--Kfq--11" value="&lt;b&gt;Lựa chọn&lt;/b&gt;" style="rounded=1;whiteSpace=wrap;html=1;fillColor=#008a00;strokeColor=#005700;fontColor=#ffffff;" parent="WIyWlLk6GJQsqaUBKTNV-1" vertex="1">
          <mxGeometry x="460" y="470" width="140" height="50" as="geometry" />
        </mxCell>
        <mxCell id="p513RXOK11F14q--Kfq--17" value="" style="edgeStyle=orthogonalEdgeStyle;rounded=0;orthogonalLoop=1;jettySize=auto;html=1;" parent="WIyWlLk6GJQsqaUBKTNV-1" source="p513RXOK11F14q--Kfq--15" target="p513RXOK11F14q--Kfq--3" edge="1">
          <mxGeometry relative="1" as="geometry" />
        </mxCell>
        <mxCell id="p513RXOK11F14q--Kfq--15" value="&lt;b&gt;&lt;font color=&quot;#ffffff&quot;&gt;Thế hệ&lt;/font&gt;&lt;/b&gt;" style="shape=parallelogram;perimeter=parallelogramPerimeter;whiteSpace=wrap;html=1;fixedSize=1;fillColor=#1ba1e2;strokeColor=#006EAF;fontColor=#ffffff;" parent="WIyWlLk6GJQsqaUBKTNV-1" vertex="1">
          <mxGeometry x="230" y="142.5" width="150" height="45" as="geometry" />
        </mxCell>
        <mxCell id="p513RXOK11F14q--Kfq--28" style="edgeStyle=orthogonalEdgeStyle;rounded=0;orthogonalLoop=1;jettySize=auto;html=1;entryX=0.5;entryY=0;entryDx=0;entryDy=0;" parent="WIyWlLk6GJQsqaUBKTNV-1" source="p513RXOK11F14q--Kfq--19" target="p513RXOK11F14q--Kfq--23" edge="1">
          <mxGeometry relative="1" as="geometry">
            <Array as="points">
              <mxPoint x="298" y="540" />
              <mxPoint x="298" y="540" />
            </Array>
          </mxGeometry>
        </mxCell>
        <mxCell id="p513RXOK11F14q--Kfq--19" value="&lt;b&gt;&lt;font color=&quot;#ffffff&quot;&gt;Cá thể cha mẹ&lt;/font&gt;&lt;/b&gt;" style="shape=parallelogram;perimeter=parallelogramPerimeter;whiteSpace=wrap;html=1;fixedSize=1;fillColor=#1ba1e2;strokeColor=#006EAF;fontColor=#ffffff;" parent="WIyWlLk6GJQsqaUBKTNV-1" vertex="1">
          <mxGeometry x="220" y="472.5" width="160" height="45" as="geometry" />
        </mxCell>
        <mxCell id="p513RXOK11F14q--Kfq--32" style="edgeStyle=orthogonalEdgeStyle;rounded=0;orthogonalLoop=1;jettySize=auto;html=1;" parent="WIyWlLk6GJQsqaUBKTNV-1" source="p513RXOK11F14q--Kfq--23" target="p513RXOK11F14q--Kfq--30" edge="1">
          <mxGeometry relative="1" as="geometry">
            <Array as="points">
              <mxPoint x="300" y="650" />
              <mxPoint x="300" y="650" />
            </Array>
          </mxGeometry>
        </mxCell>
        <mxCell id="p513RXOK11F14q--Kfq--23" value="&lt;b&gt;Lai ghép&lt;/b&gt;" style="rounded=1;whiteSpace=wrap;html=1;fillColor=#008a00;strokeColor=#005700;fontColor=#ffffff;" parent="WIyWlLk6GJQsqaUBKTNV-1" vertex="1">
          <mxGeometry x="228" y="583" width="140" height="50" as="geometry" />
        </mxCell>
        <mxCell id="p513RXOK11F14q--Kfq--35" value="" style="edgeStyle=orthogonalEdgeStyle;rounded=0;orthogonalLoop=1;jettySize=auto;html=1;" parent="WIyWlLk6GJQsqaUBKTNV-1" source="p513RXOK11F14q--Kfq--30" target="p513RXOK11F14q--Kfq--34" edge="1">
          <mxGeometry relative="1" as="geometry" />
        </mxCell>
        <mxCell id="p513RXOK11F14q--Kfq--30" value="&lt;b&gt;&lt;font color=&quot;#ffffff&quot;&gt;Các cá thể con cái&lt;/font&gt;&lt;/b&gt;" style="shape=parallelogram;perimeter=parallelogramPerimeter;whiteSpace=wrap;html=1;fixedSize=1;fillColor=#1ba1e2;strokeColor=#006EAF;fontColor=#ffffff;" parent="WIyWlLk6GJQsqaUBKTNV-1" vertex="1">
          <mxGeometry x="220" y="692.5" width="160" height="45" as="geometry" />
        </mxCell>
        <mxCell id="p513RXOK11F14q--Kfq--38" value="" style="edgeStyle=orthogonalEdgeStyle;rounded=0;orthogonalLoop=1;jettySize=auto;html=1;" parent="WIyWlLk6GJQsqaUBKTNV-1" source="p513RXOK11F14q--Kfq--34" target="p513RXOK11F14q--Kfq--37" edge="1">
          <mxGeometry relative="1" as="geometry" />
        </mxCell>
        <mxCell id="p513RXOK11F14q--Kfq--34" value="&lt;b&gt;Đột biến&lt;/b&gt;" style="rounded=1;whiteSpace=wrap;html=1;fillColor=#008a00;strokeColor=#005700;fontColor=#ffffff;" parent="WIyWlLk6GJQsqaUBKTNV-1" vertex="1">
          <mxGeometry x="445" y="690" width="140" height="50" as="geometry" />
        </mxCell>
        <mxCell id="p513RXOK11F14q--Kfq--48" value="" style="edgeStyle=orthogonalEdgeStyle;rounded=0;orthogonalLoop=1;jettySize=auto;html=1;" parent="WIyWlLk6GJQsqaUBKTNV-1" source="p513RXOK11F14q--Kfq--37" target="p513RXOK11F14q--Kfq--40" edge="1">
          <mxGeometry relative="1" as="geometry" />
        </mxCell>
        <mxCell id="p513RXOK11F14q--Kfq--37" value="&lt;b&gt;&lt;font color=&quot;#ffffff&quot;&gt;Cá thể bị đột biến&lt;/font&gt;&lt;/b&gt;" style="shape=parallelogram;perimeter=parallelogramPerimeter;whiteSpace=wrap;html=1;fixedSize=1;fillColor=#1ba1e2;strokeColor=#006EAF;fontColor=#ffffff;" parent="WIyWlLk6GJQsqaUBKTNV-1" vertex="1">
          <mxGeometry x="675" y="692.5" width="150" height="45" as="geometry" />
        </mxCell>
        <mxCell id="p513RXOK11F14q--Kfq--46" value="" style="edgeStyle=orthogonalEdgeStyle;rounded=0;orthogonalLoop=1;jettySize=auto;html=1;" parent="WIyWlLk6GJQsqaUBKTNV-1" source="p513RXOK11F14q--Kfq--40" target="p513RXOK11F14q--Kfq--45" edge="1">
          <mxGeometry relative="1" as="geometry" />
        </mxCell>
        <mxCell id="p513RXOK11F14q--Kfq--40" value="&lt;b&gt;Thêm cá các cá thể&lt;/b&gt;&lt;div&gt;&lt;b&gt;mới vào quẩn thề&lt;/b&gt;&lt;/div&gt;" style="rounded=1;whiteSpace=wrap;html=1;fillColor=#008a00;strokeColor=#005700;fontColor=#ffffff;" parent="WIyWlLk6GJQsqaUBKTNV-1" vertex="1">
          <mxGeometry x="680" y="585" width="140" height="50" as="geometry" />
        </mxCell>
        <mxCell id="p513RXOK11F14q--Kfq--47" style="edgeStyle=orthogonalEdgeStyle;rounded=0;orthogonalLoop=1;jettySize=auto;html=1;entryX=1;entryY=0.5;entryDx=0;entryDy=0;" parent="WIyWlLk6GJQsqaUBKTNV-1" source="p513RXOK11F14q--Kfq--45" target="p513RXOK11F14q--Kfq--3" edge="1">
          <mxGeometry relative="1" as="geometry">
            <Array as="points">
              <mxPoint x="750" y="165" />
            </Array>
          </mxGeometry>
        </mxCell>
        <mxCell id="p513RXOK11F14q--Kfq--45" value="&lt;b&gt;&lt;font color=&quot;#ffffff&quot;&gt;Quần thể mới&lt;/font&gt;&lt;/b&gt;" style="shape=parallelogram;perimeter=parallelogramPerimeter;whiteSpace=wrap;html=1;fixedSize=1;fillColor=#1ba1e2;strokeColor=#006EAF;fontColor=#ffffff;" parent="WIyWlLk6GJQsqaUBKTNV-1" vertex="1">
          <mxGeometry x="675" y="472.5" width="150" height="45" as="geometry" />
        </mxCell>
        <mxCell id="O44ZnupVjyuXZT38wMNV-2" value="" style="edgeStyle=orthogonalEdgeStyle;rounded=0;orthogonalLoop=1;jettySize=auto;html=1;" edge="1" parent="WIyWlLk6GJQsqaUBKTNV-1" source="O44ZnupVjyuXZT38wMNV-0" target="p513RXOK11F14q--Kfq--15">
          <mxGeometry relative="1" as="geometry" />
        </mxCell>
        <mxCell id="O44ZnupVjyuXZT38wMNV-0" value="&lt;b&gt;&lt;font color=&quot;#ffffff&quot;&gt;Khởi tạo quầ thể&lt;/font&gt;&lt;/b&gt;" style="rounded=1;whiteSpace=wrap;html=1;fillColor=#008a00;strokeColor=#005700;fontColor=#ffffff;" vertex="1" parent="WIyWlLk6GJQsqaUBKTNV-1">
          <mxGeometry x="30" y="139.5" width="140" height="50" as="geometry" />
        </mxCell>
        <mxCell id="O44ZnupVjyuXZT38wMNV-5" value="" style="edgeStyle=orthogonalEdgeStyle;rounded=0;orthogonalLoop=1;jettySize=auto;html=1;" edge="1" parent="WIyWlLk6GJQsqaUBKTNV-1" source="O44ZnupVjyuXZT38wMNV-4" target="p513RXOK11F14q--Kfq--8">
          <mxGeometry relative="1" as="geometry" />
        </mxCell>
        <mxCell id="O44ZnupVjyuXZT38wMNV-4" value="&lt;b&gt;&lt;font color=&quot;#ffffff&quot;&gt;Trình bày kết quả&lt;/font&gt;&lt;/b&gt;" style="rounded=1;whiteSpace=wrap;html=1;fillColor=#008a00;strokeColor=#005700;fontColor=#ffffff;" vertex="1" parent="WIyWlLk6GJQsqaUBKTNV-1">
          <mxGeometry x="220" y="274.5" width="140" height="50" as="geometry" />
        </mxCell>
      </root>
    </mxGraphModel>
  </diagram>
</mxfile>
